<svg xmlns="http://www.w3.org/2000/svg" viewBox="0 0 1920 1080"><defs><style>.cls-1,.cls-2,.cls-3{fill:#fff;}.cls-2,.cls-3{stroke:#fff;stroke-miterlimit:10;}.cls-2{stroke-width:2px;}.cls-3{stroke-width:3px;}.cls-4{fill:#001700;}</style></defs><g id="Calque_2" data-name="Calque 2"><path class="cls-1" d="M660.89,456.32c1,1.15.62,3.06-.81,4.28s-3.37,1.27-4.35.13-.62-3.06.81-4.28S659.91,455.18,660.89,456.32Z"/><path class="cls-1" d="M667.84,436.84c1,1.14.62,3.06-.8,4.27s-3.37,1.27-4.35.13-.62-3.06.8-4.28S666.86,435.69,667.84,436.84Z"/><path class="cls-1" d="M679.48,456.55c3.9-6.72,4-14.53-.48-19.74-6-7-17.94-6.67-26.66.78-8.35,7.13-10.73,18.19-5.65,25.29a16.78,16.78,0,0,1-3.19-2.9c-7.54-8.83-4.94-23.43,5.8-32.61s25.57-9.47,33.12-.64C689.24,434.7,687.77,447.4,679.48,456.55Z"/><path class="cls-1" d="M710.05,529.61c-.54-1.41.44-3.09,2.19-3.76s3.6-.08,4.14,1.33-.44,3.09-2.19,3.76S710.59,531,710.05,529.61Z"/><path class="cls-1" d="M718.23,509.37c-.54-1.41.44-3.09,2.19-3.76s3.6-.07,4.14,1.33-.44,3.1-2.18,3.77S718.77,510.78,718.23,509.37Z"/><path class="cls-2" d="M733.26,542.23c-13.2,5-27.27.37-31.42-10.47-.17-.44-.32-.89-.45-1.34,4.74,5.9,14.23,8,23.27,4.5,10.71-4.1,16.71-14.42,13.41-23-2.43-6.34-9.22-10-16.91-9.86,12.28-3.36,24.63,1.39,28.47,11.43C753.79,524.28,746.45,537.17,733.26,542.23Z"/><path class="cls-1" d="M923.39,530.41c-3.67-5.51-12.67-12.1-20.75-17.32a297.55,297.55,0,0,1-24.85-17.77c-39.85-31.88-79.14-12.72-79.14-12.72,1.84-22.93-15.59-43.34-15.59-43.34,23.39,2.41,35.31,24.54,35.31,24.54-5.62-40.36-57.09-53.55-57.09-53.55a100.77,100.77,0,0,0,44.94-6.87c-36.69,3.21-77.58-9.64-86.45-13.61s4.89-82.55-18.34-96.61c-17.56-10.63-41.61-10-52.33-9.12a2.38,2.38,0,0,0-1.18,4.3c7.87,5.61,18.81,9.56,18.81,9.56.68.29,1.34.6,2,.92,15,7.32,23.53,21.21,27.45,35.87,6.65,24.86.05,52-10.64,53.09-9.81,1.05-14.45-.13-23,1-6.52.82-15.32,2.95-30.38,8.34l-.08,0c-34.44,12.33-29.08-21.95-28.9-23.06-11.49,25.52,3,32.25,3.65,32.53-24.28-5.51-27.8-25.83-27.8-25.83-2.6,20,7.49,28.74,7.49,28.74-14.25-5.57-21.52-12.23-22.27-13.07.6,1.1,7.07,13.52,8.67,41.35.76,13.22,2.4,21.77,4,27.17,29.61,4.05,122.85,25.75,120.81,134.47,23.6,19.26,64.44,20.54,64.44,20.54-8.26-6.88-4.82-17.08-4.82-17.08,7.46,20.29,36,15.41,36,15.41-19-8.95-22.82-21-22.82-21,15.32,7.46,34.48-.3,38.64-4.08-2.68.53-15.67,1.14-23.93-4.21-16.67-10.8-.67-21.51,4.83-26.8l1.09-1a12.76,12.76,0,0,0,1.35.66h0c3.6,1.6,14.47,5.39,32.82,3C839,563,860.59,555.2,879,549.14l.23-.07c-.51-.06-1-.13-1.49-.23-9.43-1.81-14.14-10.94-14.14-10.94,1.53,17.43-15.74,24.61-34.24,16.36-15.37-6.85-11.85-23.42-10.22-28.83-1.75,3.11-6.18,13.19-15.16,7.73a8.89,8.89,0,0,1-3.89-6c-1.57-7.15,1.42-16.19,4-22.77a16.14,16.14,0,0,1,6.17-7.81c2.88-1.85,6.58-2.86,12.12-2.08,2.34.33,7.92,1.23,10.55,1.55,18.41,2.23,40.54,4.58,60.26,23.74,1.2,1.42,2.3,1.47,2.47,3.34.6,6.56-.29,16.17-4,21.41a10,10,0,0,1-.7.88l2-.58c6.38-1.84,11.75-3.06,15.39-3.15C918.16,541.39,930.73,541.41,923.39,530.41ZM622.67,469.47a1.55,1.55,0,0,1-.37,0,1.51,1.51,0,0,1-1.09-1.82l3.21-12.84a1.5,1.5,0,1,1,2.91.72l-3.21,12.84A1.49,1.49,0,0,1,622.67,469.47Zm7.05-5.21-.86,6.82a1.51,1.51,0,0,1-1.49,1.31h-.19a1.5,1.5,0,0,1-1.3-1.67l.86-6.83a1.5,1.5,0,0,1,3,.38Zm7,4.31-3.84,8.88a1.51,1.51,0,0,1-1.38.91,1.37,1.37,0,0,1-.59-.13,1.5,1.5,0,0,1-.78-2l3.84-8.88a1.5,1.5,0,1,1,2.75,1.19Zm42.71,35.81-11.07-1.24a2.11,2.11,0,0,1-1.76-2.75l3.41-10.4a1.1,1.1,0,0,1,1.91-.32l9.12,11.84A1.78,1.78,0,0,1,679.48,504.38Zm0-47.83h0a31.3,31.3,0,0,1-2.86,2.77c-9.38,8-21.88,9.25-29.92,3.55a16.78,16.78,0,0,1-3.19-2.9c-7.54-8.83-4.94-23.43,5.8-32.61s25.57-9.47,33.12-.64C689.24,434.7,687.77,447.4,679.48,456.55Zm60.22,7.66c2.41-.92,6.12,2.9,8.28,8.53s1.95,11-.46,11.88-6.11-2.9-8.27-8.53S737.29,465.13,739.7,464.21Zm-41.76-43.47c1.83-1.82,6.77.16,11,4.43s6.25,9.21,4.42,11-6.76-.16-11-4.42S696.12,422.57,697.94,420.74Zm-2.36,132.58a1.5,1.5,0,0,1,0-3h8.72a1.5,1.5,0,0,1,0,3Zm6.58,5.47a1.5,1.5,0,0,1-.13-3l7-.59a1.52,1.52,0,0,1,1.62,1.37,1.5,1.5,0,0,1-1.37,1.62l-7,.59Zm18.27,3.5-12.95,3.47a1.74,1.74,0,0,1-.39,0,1.5,1.5,0,0,1-.38-2.95l12.94-3.47a1.5,1.5,0,1,1,.78,2.9Zm11.83-19.67c-13.2,5-27.27.37-31.42-10.47-.17-.44-.32-.89-.45-1.34-3.1-10.54,4.17-22.6,16.83-27.45q1.47-.56,2.94-1c12.28-3.36,24.63,1.39,28.47,11.43C752.79,524.67,745.45,537.56,732.26,542.62Z"/><path class="cls-1" d="M717.9,756.82a50.82,50.82,0,0,1-3.39,4.08c-22.41,8.52-57.24,6.7-99.75-45.69,47.94-15.54,66.68-57.43,71.35-70.1a136.23,136.23,0,0,1,12.23,6.49h0c8.07,4.9,15.57,11.1,12.11,15.83-5.77,7.88-11.35.49-15.05,2.78a4.65,4.65,0,0,0-1.66,2c-1.74,3.5,13.63,18.33,22.85,37.66l0,0C723.36,724,726.81,740.55,717.9,756.82Z"/><path class="cls-1" d="M747.78,751a87.86,87.86,0,0,1-8.75,8.93l.38-.45a.18.18,0,0,1,.05-.07,16,16,0,0,0,3.35-16.4,17.77,17.77,0,0,0-.76-1.86,66.77,66.77,0,0,1-18.36,15.39c9.56-15,12.78-39.21-14.58-75.39a2.44,2.44,0,0,1,.24-3.23c5.1-4.85,18.46-21-17-31.84l.22,0,.41.07c7.28,1.09,16,.34,18.46-8.5.06-.22.12-.45.17-.69s.1-.5.15-.75a22.59,22.59,0,0,0,.33-3.86s6.88,10.78,6.08,20.07l.12.08.36.25c.16.1.36.23.59.4l.7.5h0C730.73,661.51,785.68,704.88,747.78,751Z"/><path class="cls-1" d="M689.83,610.7q-.36,2.89-.85,5.76l-.22.22v1c-.14.74-.28,1.48-.44,2.22-.39,2-.83,3.92-1.33,5.87a30.75,30.75,0,0,0,3.48-1.6c.28-1.19.55-2.38.79-3.59.17-.87.34-1.75.5-2.63v0c.61-3.42,1.09-6.89,1.41-10.41Zm3.2-28.53c-.07-.68-.15-1.36-.23-2-.16-1.3-.34-2.58-.53-3.87-.12-.69-.23-1.38-.35-2.07-.08-.46-.16-.92-.25-1.38-.16-.89-.33-1.77-.51-2.65-.13-.61-.26-1.23-.4-1.84-.08-.37-.16-.74-.25-1.11s-.22-1-.35-1.45-.21-.87-.32-1.31c-.33-1.27-.68-2.54-1-3.8q-.27-.95-.57-1.89c-.19-.62-.39-1.25-.59-1.87-.4-1.24-.83-2.48-1.27-3.71-.22-.61-.45-1.22-.68-1.83-.3-.81-.62-1.61-.94-2.41-.41-1-.82-2-1.26-3q-.27-.65-.57-1.29c-.33-.76-.68-1.51-1-2.25s-.55-1.17-.84-1.75q-.25-.54-.54-1.08c-.18-.39-.38-.77-.58-1.16-.38-.74-.77-1.47-1.16-2.2-.27-.5-.55-1-.83-1.5l-.52-.93c-.32-.55-.63-1.1-1-1.64s-.65-1.11-1-1.65-.67-1.1-1-1.64c-.68-1.09-1.39-2.17-2.11-3.22s-1.36-2-2.06-3q-2.88-4-6.06-7.76-.53-.63-1.08-1.26c-.89-1-1.81-2-2.74-3-.4-.44-.81-.87-1.21-1.3-1.3-1.35-2.62-2.68-4-4L654,504.18c-.6-.55-1.2-1.11-1.81-1.65-1-.86-1.92-1.7-2.89-2.52l-1.48-1.23-1.5-1.2-1.51-1.18-1.37-1c-.66-.5-1.33-1-2-1.47l-1.28-.9-1.59-1.09-1.7-1.13-1.53-1c-.54-.35-1.09-.69-1.64-1q-2.46-1.5-5-2.9A124.34,124.34,0,0,0,579.08,471c-1.64-.13-3.29-.24-4.94-.3s-3.6-.12-5.42-.12q-2.43,0-4.83.09A124.52,124.52,0,0,0,535.58,475c-1.22.33-2.42.68-3.62,1.05l-.44.14c-.12.39-.23.8-.34,1.22s-.23.9-.33,1.36c-.06.28-.13.56-.18.84l1-.32,1.18-.37c1-.31,2-.61,3.08-.9a119.35,119.35,0,0,1,14.4-3.08,122.58,122.58,0,0,1,18.4-1.38c2.68,0,5.38.09,8,.26.7,0,1.39.09,2.08.15a120.75,120.75,0,0,1,46.07,13.26c.79.41,1.58.83,2.36,1.26a122.1,122.1,0,0,1,63.33,100.94l1.11-1.23c.77-.88,1.35-1.59,1.7-2C693.3,584.86,693.18,583.51,693,582.17Zm-8.27,51.27c-.88,2.71-1.85,5.38-2.93,8q-.26.66-.54,1.32a122.23,122.23,0,0,1-69.4,67l-.24.09a122.07,122.07,0,0,1-164-129.33c0-.27.07-.54.11-.81A122,122,0,0,1,525,481.66c0-.29,0-.58,0-.85,0-.87.11-1.68.16-2.43A125.05,125.05,0,0,0,612.3,712.81l.41-.15a124.16,124.16,0,0,0,23.17-11.59q2-1.27,4-2.63t3.84-2.77c.68-.51,1.35-1,2-1.55l.17-.14c.52-.4,1-.81,1.54-1.22l1.83-1.51c1.86-1.57,3.69-3.2,5.46-4.88l.19-.18c.73-.7,1.45-1.4,2.16-2.11s1.54-1.55,2.29-2.35c1.73-1.82,3.4-3.68,5-5.6.4-.47.79-.94,1.18-1.42s.88-1.08,1.31-1.63c1-1.29,2-2.61,3-3.94.38-.51.75-1,1.12-1.55.78-1.11,1.55-2.23,2.29-3.37.29-.43.57-.87.85-1.31s.73-1.14,1.08-1.72.69-1.11,1-1.68c.44-.73.87-1.47,1.29-2.21.32-.57.64-1.14.95-1.71.23-.4.44-.8.65-1.21.31-.57.62-1.14.91-1.72q2-4,3.79-8.08c.07-.15.13-.3.2-.46l0-.12,0-.07c.55-1.3,1.07-2.61,1.57-3.94.94-2.44,1.79-4.93,2.57-7.45A32.17,32.17,0,0,1,684.76,633.44Z"/><path class="cls-1" d="M552.65,658.51c-9.63,8-32.25,24.77-22.16,41.13,0,0-10.25-2.3-11.77-10.71s.15-33.78-18.5-41.73-1.84-19.41-9.78-25.83-8.11-6.42-12.84-7-1.34-11-10.76-16.05-8-6.34-10.19-11.08c-1.14-2.52-5.81-6.08-8.91-7.5a8.69,8.69,0,0,0-1-.41c8.76-53.15,43.08-85.25,78.28-98.49,0,.27,0,.56,0,.85-.25,4.42-.44,10.07-.33,16.14a20.43,20.43,0,0,1-6.53,4.64c-14.52,6.57-15.13,6.72-13.91,9.32s5.05,5.66,14.83-.76a17.32,17.32,0,0,1,6.13-2.55,95.9,95.9,0,0,0,2.46,15.77c-.52.62-1.1,1.25-1.71,1.91-15.9,17-22.47,14.37-25.07,31.49s-23.54,5.2-25.07,5.51-16.36,7.64-4.13,25.83,14.37,27.36,29.2,27.21,15.75-1.38,28.43,8.41,21.56,11.77,23.39,13.6S562.28,650.57,552.65,658.51Z"/><path class="cls-1" d="M682.59,633.82c-10.68,32.56-26.24,26.07-26.24,26.07,7.08-7.27,8.83-18.77,9.18-25.89A71.35,71.35,0,0,0,682.59,633.82Z"/><path class="cls-1" d="M691.7,588.22l-1.11,1.23c-3.83,4.2-10.51,10.65-16.49,12.07-9,2.14-26-19.11-26-19.11l-23-25.95c4.62-1.64,8.42,3.65,15.45,1.93,7.49-1.84,13.45-4.44,22.32-14.68s-7.65-8.71-9.79-7-7.49,4-9.47,2-6.12-1.53-7.5.15-9.17,9.63-14.06,6-3.67-6.57,7.95-13.14,7.8-14.07-1.07-16.82-11-7.8-8.71-11.16,5.35-8.41,3.67-11.16c-.94-1.53-.06-3.6.95-5.25.23-.37.47-.73.69-1.05C662,506.12,691.57,550.19,691.7,588.22Z"/><path class="cls-1" d="M635,699.64a124,124,0,0,1-67.06,19.42c-17.35,0-16.75-1.17-24.7-2.76,3.84-4.19,13-10.87,19.48-15.36,8.83-6.07,8.87,4.6,13.19,7.69,4.58,3.27,37.6.65,45.63-10.78C626.47,690.79,631.31,694.59,635,699.64Z"/><path class="cls-3" d="M648,351.11c-1.37,15.75,12.54,17.73,12.54,17.73s-11.16,3.06-5.81,13c1.79,3.33,4.59,6.34,6.91,7.58-6.52.82-15.81,3.4-30.87,8.79-6.26-15,6-45.39,18.08-68.22,4.31,6.47,12.17,9.33,14.52,10.07C660.51,339.34,649.24,337.41,648,351.11Z"/><path class="cls-1" d="M698.24,345.4c-4.57-15.41-13.61-27.5-27-32.26a38.62,38.62,0,0,0-11.57-2.22c3.57-5.93,6.57-12.44,7.91-14.48C695.87,304.92,696.61,331,698.24,345.4Z"/><path class="cls-1" d="M661,390l-.42-.22a17.25,17.25,0,0,1-7.08-7.22c-1.78-3.31-2.11-6.34-1-9a10.26,10.26,0,0,1,4-4.45c-4.42-1.94-10.91-6.74-9.92-18.12.4-4.62,2-8.05,4.6-10.19a11.25,11.25,0,0,1,5.06-2.29,25.37,25.37,0,0,1-8.56-7.68c-2.62-3.93-2.79-9.81-.44-14.29s6.8-7,12.47-7.11a29,29,0,0,1,10.45,2.06c.56.21,1.12.43,1.66.66,16.21,6.8,26.92,23,27.28,41.26.38,19.36-5.91,34.65-14.64,35.58a96.16,96.16,0,0,1-12.08.47,77.36,77.36,0,0,0-10.93.48Zm-1.59-48.76a9.94,9.94,0,0,0-6.33,1.89c-2,1.61-3.16,4.34-3.49,8.12-1.23,14.1,10.75,16,11.26,16.11l7.05,1L661,370.28s-4.38,1.26-5.75,4.47c-.75,1.77-.46,3.91.87,6.38a14.32,14.32,0,0,0,5.44,5.77,78.65,78.65,0,0,1,10.84-.45,91.93,91.93,0,0,0,11.73-.46h0c6.93-.73,12.29-15.32,12-32.53s-10.32-32.22-25.44-38.55c-.51-.22-1-.42-1.55-.62a26,26,0,0,0-9.35-1.87c-5.8.09-8.56,3-9.86,5.51a11.64,11.64,0,0,0,.27,11.23c4,6,11.52,8.77,13.73,9.47l13.69,4.31-14.29-1.39-.72-.08A25.15,25.15,0,0,0,659.36,341.23Z"/><path class="cls-1" d="M900,525.06a1.55,1.55,0,0,1-2.08-.19q-1.5-1.73-3-3.28c-19.2-19.4-44.27-22.24-62.84-24.35-2.61-.31-5.08-.59-7.42-.89-18.23-2.43-20,7.82-23.26,28.26l0,.19-.24,1.52c-3.35,20.65-8,29.25-8.51,30.12h0a.16.16,0,0,1,0,.06,1.52,1.52,0,0,1-1.31.71,1.68,1.68,0,0,1-.71-.17,1.36,1.36,0,0,1-.36-.27,1.33,1.33,0,0,1-.22-1.62c.09-.14,4.85-8.56,8.21-29.26l.24-1.52c1.89-11.68,3.42-21.08,8.45-26.39,3.67-3.88,9.23-5.58,18.19-4.39,2.31.3,4.76.58,7.36.88,18.17,2.06,42.41,4.81,61.88,22.55a74.51,74.51,0,0,1,5.94,6.08A1.34,1.34,0,0,1,900,525.06Z"/><path class="cls-1" d="M844.21,561.06a38.47,38.47,0,0,1-15.51-3.52c-11.56-5.15-13.15-15.42-12.51-23a10.66,10.66,0,0,1-5.05,3.3c-2.51.69-5.2.18-8-1.51a10.33,10.33,0,0,1-4.57-7c-1.65-7.49,1.29-16.56,4-23.63a17.58,17.58,0,0,1,6.76-8.53c3.61-2.32,7.78-3.06,13.14-2.3l3.58.54c2.48.37,5.29.8,6.94,1l1.05.13c18,2.17,40.36,4.88,60.07,24l.1.11a7.19,7.19,0,0,0,1,.9,4.3,4.3,0,0,1,1.88,3.27c.66,7.23-.41,17-4.27,22.42h0a11.55,11.55,0,0,1-6.88,4.69,19.86,19.86,0,0,1-8.52.26,21.88,21.88,0,0,1-12.4-7.7,17.52,17.52,0,0,1-7.25,12.63A23.16,23.16,0,0,1,844.21,561.06Zm-19.76-46.3-3.92,13c-1.82,6.05-4.56,20.8,9.39,27,9.85,4.4,19.85,4.36,26.09-.08,4.52-3.23,6.61-8.34,6-14.78l-.67-7.59,3.5,6.78c0,.08,4.51,8.51,13.09,10.15a17,17,0,0,0,7.24-.22,8.53,8.53,0,0,0,5.14-3.53c3.4-4.8,4.32-13.95,3.73-20.4-.06-.63-.19-.73-.8-1.24a10.37,10.37,0,0,1-1.28-1.21c-19-18.4-39.86-20.92-58.29-23.15l-1.05-.13c-1.69-.2-4.53-.64-7-1l-3.55-.53c-4.6-.65-8.13-.06-11.1,1.85a14.53,14.53,0,0,0-5.58,7.1c-2.39,6.15-5.39,15.12-3.9,21.9a7.35,7.35,0,0,0,3.2,5.09,7.12,7.12,0,0,0,5.65,1.19c3.43-.94,5.73-5.22,7-7.53.17-.31.32-.6.46-.84Z"/><path class="cls-1" d="M707.71,605.3s-4.85,10.63-14.17,17a29.1,29.1,0,0,1-3.07,1.86,30.75,30.75,0,0,1-3.48,1.6c-.73.28-1.49.54-2.27.77-5.57,1.67-12.32,2-20.4-.25a57.91,57.91,0,0,1-8.18-2.95c-1.06-.47-2.11-1-3.13-1.52-24.1-12.68-37.08-43.37-55.11-66.47-18.8-24.07,0-26.94,0-26.94s12.37-5.65,18.39,24.79a17.56,17.56,0,0,0,2.13,5.62c.22.38.46.75.71,1.11,7,9.93,29.4,40.2,50.69,50.34a13.12,13.12,0,0,0,13.85-1.69c2.27-1.83,4.52-3.27,6.27-4.78.2-.18.39-.35.57-.53,1.69-1.59,7.22-6.49,7.16-8.89"/><path class="cls-1" d="M571.92,595.61c-9.55,1.52-12.85-6.57-14-11.79a30.33,30.33,0,0,0-4.43-10.32c-.89-1.34-1.86-2.76-2.85-4.1-1.4-1.89-6.1-12.11-10.71-25.66h0a233.54,233.54,0,0,1-7.47-26.89c-.54-2.61-1-5.23-1.44-7.83a106.27,106.27,0,0,1-1.46-19.44,57.73,57.73,0,0,1,1.09-9.95c.05-.28.12-.56.18-.84.1-.46.21-.91.33-1.36s.22-.83.34-1.22a31.49,31.49,0,0,1,1.36-3.8c7.66-17.81,24.8-6.61,31-1.74a14,14,0,0,1,1.43,1.17l-12.25-.14s-1.47-.52-2.75,3.26c-.88,2.64-1.67,7.38-1.79,15.86-.31,20.64,9.32,66.81,21.4,76.74S585.83,593.4,571.92,595.61Z"/><path class="cls-1" d="M494.87,591s19,1.23,16.51,8.56l-.43,1.3a3.82,3.82,0,0,1-6.18,1.64,33.42,33.42,0,0,0-9.9-6.3C486.31,592.83,494.87,591,494.87,591Z"/><path class="cls-1" d="M485.09,575a2.14,2.14,0,0,0-3,2.22c.38,2.81,1.61,6.38,5.35,6.52C492.9,584,492.28,578.26,485.09,575Z"/><path class="cls-1" d="M608.31,517.76a3,3,0,0,1,2.56-.51c2.91.67,10.77,2.89,8.7,7.12C617.26,529.1,604.35,520.92,608.31,517.76Z"/><path d="M1470.63,524.75c-7.31-11-25.24-24.1-41.33-34.5a594.31,594.31,0,0,1-49.5-35.4c-79.37-63.5-157.63-25.33-157.63-25.33,3.66-45.68-31.06-86.33-31.06-86.33,46.59,4.8,70.34,48.88,70.34,48.88-11.2-80.39-113.72-106.66-113.72-106.66,50.69,3.88,89.51-13.69,89.51-13.69-73.08,6.4-154.52-19.2-172.19-27.11s9.74-164.42-36.53-192.43c-35-21.17-82.88-20-104.23-18.16a4.73,4.73,0,0,0-2.35,8.56c15.67,11.18,37.46,19,37.46,19,1.36.58,2.67,1.2,4,1.84C993.24,78,1010.23,105.7,1018,134.9c13.25,49.52.1,103.5-21.19,105.75-19.54,2.09-28.78-.26-45.89,1.91-13,1.64-30.52,5.88-60.51,16.61l-.16.06c-68.6,24.56-57.93-43.72-57.57-45.93-22.88,50.83,6.06,64.24,7.27,64.8-48.36-11-55.37-51.45-55.37-51.45-5.18,39.89,14.92,57.24,14.92,57.24-28.39-11.09-42.87-24.36-44.36-26,1.19,2.19,14.08,26.93,17.27,82.36,1.51,26.34,4.78,43.37,7.89,54.12,59,8.07,244.69,51.29,240.63,267.84,47,38.37,128.35,40.92,128.35,40.92-16.45-13.71-9.6-34-9.6-34,14.86,40.41,71.73,30.69,71.73,30.69-37.9-17.83-45.45-41.89-45.45-41.89,30.51,14.86,68.68-.6,77-8.12-5.34,1-31.21,2.27-47.66-8.39-33.21-21.51-1.34-42.84,9.62-53.38,1.37-1.32,2.17-2,2.17-2a26.1,26.1,0,0,0,2.69,1.31v0c7.17,3.19,28.82,10.74,65.37,6,27.35-3.55,70.39-19.12,107-31.2a4,4,0,0,1,.46-.13c-1-.12-2-.26-3-.46-18.78-3.61-28.16-21.79-28.16-21.79,3,34.71-31.35,49-68.2,32.58-30.62-13.64-23.61-46.65-20.36-57.42-3.49,6.19-12.31,26.27-30.2,15.39-4.2-2.54-6.61-6.81-7.75-12.05-3.12-14.24,2.83-32.24,7.91-45.35a32.24,32.24,0,0,1,12.29-15.56c5.74-3.68,13.11-5.69,24.14-4.14,4.66.66,15.78,2.45,21,3.09,36.67,4.44,80.75,9.12,120,47.28,2.39,2.83,4.58,2.93,4.92,6.66,1.19,13.06-.58,32.21-8,42.64a20,20,0,0,1-1.4,1.76c1.32-.4,2.63-.8,3.91-1.16,12.71-3.66,23.4-6.09,30.65-6.27C1460.21,546.62,1485.25,546.66,1470.63,524.75Zm-599-121.39a3.11,3.11,0,0,1-.74-.08,3,3,0,0,1-2.17-3.62l6.4-25.58a3,3,0,1,1,5.79,1.44l-6.39,25.57A3,3,0,0,1,871.64,403.36Zm14-10.37L884,406.57a3,3,0,0,1-3,2.61,2.23,2.23,0,0,1-.37,0,3,3,0,0,1-2.59-3.33l1.71-13.6a3,3,0,1,1,5.93.76Zm14.05,8.58-7.65,17.69a3,3,0,0,1-2.75,1.81,2.74,2.74,0,0,1-1.18-.26,3,3,0,0,1-1.55-3.92l7.65-17.69a3,3,0,1,1,5.48,2.37ZM984.8,472.9l-22-2.47a4.21,4.21,0,0,1-3.51-5.48l6.8-20.71a2.18,2.18,0,0,1,3.8-.64L988,467.18A3.56,3.56,0,0,1,984.8,472.9Zm0-95.27a0,0,0,0,1,0,0,63.49,63.49,0,0,1-5.7,5.52c-18.68,16-43.58,18.42-59.59,7.07a33.68,33.68,0,0,1-6.36-5.78c-15-17.59-9.84-46.67,11.55-64.95s50.94-18.87,66-1.28C1004.24,334.11,1001.31,359.4,984.8,377.63Zm120,15.26c4.8-1.83,12.19,5.77,16.49,17s3.88,21.83-.92,23.66-12.17-5.78-16.47-17S1100,394.72,1104.75,392.89Zm-83.18-86.59c3.64-3.62,13.48.32,22,8.83s12.45,18.34,8.8,22-13.46-.32-22-8.81S1017.94,310,1021.57,306.3Zm-4.7,264.08a3,3,0,0,1,0-6h17.37a3,3,0,0,1,0,6Zm13.1,10.9a3,3,0,0,1-.26-6l13.85-1.17a3,3,0,0,1,3.22,2.72,3,3,0,0,1-2.72,3.23l-13.85,1.18Zm36.39,7-25.79,6.91a3.47,3.47,0,0,1-.78.1,3,3,0,0,1-.75-5.88l25.77-6.91a3,3,0,1,1,1.55,5.78Zm23.57-39.18c-26.29,10.06-54.32.73-62.59-20.86-.33-.87-.63-1.77-.89-2.67-6.18-21,8.3-45,33.52-54.67q2.92-1.11,5.86-1.91c24.46-6.7,49.06,2.76,56.7,22.76C1130.82,513.31,1116.2,539,1089.93,549.07Z"/><path class="cls-4" d="M993.86,751c0,.08-.06.16-.1.24-.14.32-.26.62-.4.92-.59-.28-1.13-.5-1.59-.7l0-1.1v-.22Z"/><path d="M1061.33,975.72a103.14,103.14,0,0,1-6.76,8.13c-44.63,17-114,13.34-198.68-91,95.49-31,132.81-114.39,142.11-139.63a270.23,270.23,0,0,1,24.36,12.93l0,0c16.08,9.76,31,22.11,24.13,31.53-11.5,15.7-22.61,1-30,5.54a9.22,9.22,0,0,0-3.31,4c-3.46,7,27.15,36.51,45.52,75l0,0C1072.2,910.39,1079.07,943.31,1061.33,975.72Z"/><path d="M1061.33,975.72c-1.3,2.39-2.73,4.78-4.33,7.15-.79.34-1.61.66-2.43,1A103.14,103.14,0,0,0,1061.33,975.72Z"/><path d="M1120.84,964.11a179.38,179.38,0,0,1-20,20.53,34.28,34.28,0,0,0,2.57-2.74A175.36,175.36,0,0,0,1120.84,964.11Z"/><path d="M1104.27,980.86c4.82-6,11.73-18,6.67-32.67C1116.66,964.23,1108.65,975.92,1104.27,980.86Z"/><path class="cls-4" d="M1061.33,975.72c-1.3,2.39-2.73,4.78-4.33,7.15-.79.34-1.61.66-2.43,1A103.14,103.14,0,0,0,1061.33,975.72Z"/><path d="M1120.84,964.11a175.36,175.36,0,0,1-17.43,17.79c.24-.28.5-.58.76-.9a.36.36,0,0,1,.1-.14c4.38-4.94,12.39-16.63,6.67-32.67a35.14,35.14,0,0,0-1.51-3.7s-13,17.09-36.57,30.65c19-29.83,25.45-78.1-29-150.16a4.87,4.87,0,0,1,.47-6.44c10.16-9.66,36.77-41.92-33.86-63.42l.44.06.82.14c14.5,2.17,31.89.68,36.77-16.93.12-.44.24-.89.34-1.37s.2-1,.3-1.5a45.86,45.86,0,0,0,.65-7.68s13.71,21.47,12.11,40l.24.16.72.5c.32.2.72.46,1.17.8l1.4,1h0C1086.88,785.88,1196.33,872.26,1120.84,964.11Z"/><path class="cls-4" d="M1062.1,768c.16.1.4.26.72.5Z"/><path class="cls-4" d="M1102.58,982.65c.39-.42,1-.95,1.59-1.65-.26.32-.52.62-.76.9S1102.86,982.41,1102.58,982.65Z"/><path class="cls-4" d="M1120.84,964.11c75.49-91.85-34-178.23-55.43-193.85C1087.16,785.64,1199.1,871.75,1120.84,964.11Z"/><path d="M1005.41,684.67q-.7,5.77-1.69,11.48l-.44.43v2c-.28,1.47-.55,2.94-.87,4.42q-1.17,5.88-2.65,11.69a61,61,0,0,0,6.93-3.19c.56-2.37,1.09-4.74,1.57-7.15.34-1.73.68-3.48,1-5.24,0,0,0,0,0,0,1.21-6.81,2.17-13.72,2.81-20.73Zm6.38-56.82c-.14-1.36-.3-2.71-.46-4.05-.32-2.59-.68-5.14-1.06-7.71-.23-1.37-.45-2.75-.69-4.12-.16-.92-.32-1.83-.5-2.75-.32-1.77-.66-3.52-1-5.28-.26-1.21-.51-2.45-.79-3.66-.16-.74-.32-1.48-.5-2.21-.22-1-.44-1.93-.7-2.89s-.42-1.73-.64-2.61c-.65-2.53-1.35-5.06-2.07-7.57-.36-1.25-.73-2.51-1.13-3.76s-.78-2.49-1.18-3.73c-.79-2.47-1.65-4.94-2.53-7.39-.44-1.21-.89-2.43-1.35-3.64-.6-1.62-1.24-3.21-1.87-4.8-.82-2-1.64-4-2.51-6-.36-.86-.74-1.71-1.14-2.57-.66-1.51-1.35-3-2-4.48-.54-1.18-1.1-2.33-1.67-3.49-.34-.71-.7-1.43-1.08-2.15s-.76-1.53-1.16-2.31c-.75-1.47-1.53-2.93-2.31-4.38-.53-1-1.09-2-1.65-3-.34-.62-.7-1.23-1-1.85-.64-1.1-1.26-2.19-1.92-3.27s-1.29-2.21-2-3.28-1.33-2.19-2-3.27c-1.35-2.17-2.77-4.32-4.2-6.41s-2.71-4-4.11-5.9q-5.73-8-12.07-15.46c-.69-.83-1.41-1.67-2.15-2.51-1.77-2.05-3.6-4.08-5.46-6.07-.79-.88-1.61-1.73-2.41-2.59-2.59-2.69-5.21-5.34-7.9-7.91l-2.41-2.29c-1.2-1.09-2.39-2.21-3.61-3.29-1.89-1.71-3.82-3.38-5.76-5-1-.82-2-1.64-2.94-2.45s-2-1.6-3-2.39-2-1.58-3-2.36-1.81-1.39-2.73-2.07c-1.31-1-2.65-1.95-4-2.92l-2.55-1.8L903.33,448c-1.13-.76-2.25-1.51-3.38-2.25s-2-1.29-3.05-1.93-2.17-1.38-3.27-2c-3.26-2-6.59-3.93-10-5.78a247.76,247.76,0,0,0-98.83-29.64c-3.27-.26-6.56-.48-9.84-.6-3.59-.15-7.17-.23-10.8-.23q-4.83,0-9.62.17a248.22,248.22,0,0,0-56.39,8.67c-2.43.66-4.82,1.35-7.21,2.09l-.87.28c-.24.78-.46,1.59-.68,2.43s-.46,1.79-.66,2.71c-.12.56-.26,1.11-.36,1.67l2-.64,2.35-.73q3.06-.93,6.14-1.8a238.61,238.61,0,0,1,28.68-6.13,244.48,244.48,0,0,1,36.65-2.75c5.34,0,10.72.18,16,.52q2.09.12,4.14.3a240.47,240.47,0,0,1,91.76,26.41c1.58.82,3.15,1.65,4.7,2.51a243.19,243.19,0,0,1,126.15,201.06l2.21-2.45c1.53-1.76,2.69-3.17,3.39-4C1012.33,633.2,1012.09,630.51,1011.79,627.85ZM995.32,730c-1.76,5.39-3.69,10.71-5.84,15.95-.34.88-.7,1.75-1.08,2.63A243.33,243.33,0,0,1,850.17,882l-.48.18A243.15,243.15,0,0,1,523,624.56c.06-.54.14-1.08.22-1.61A243,243,0,0,1,677,427.64c0-.57.06-1.15.08-1.69.1-1.73.22-3.34.32-4.84C591.89,452.9,528.57,530.34,517.05,623.82a250.13,250.13,0,0,0-1.89,30.78c0,120.76,86,221.45,200,244.22a250.31,250.31,0,0,0,49,4.82A247.82,247.82,0,0,0,851,888.06l.81-.3A246.89,246.89,0,0,0,898,864.68q4-2.55,7.87-5.24c2.59-1.8,5.14-3.63,7.65-5.52,1.36-1,2.69-2,4-3.09a2.3,2.3,0,0,0,.34-.28c1-.79,2.07-1.61,3.07-2.43,1.22-1,2.43-2,3.65-3,3.7-3.13,7.35-6.38,10.87-9.72l.38-.36c1.45-1.4,2.89-2.79,4.3-4.21s3.07-3.08,4.56-4.68q5.18-5.43,10-11.15c.8-.94,1.58-1.87,2.35-2.83s1.76-2.15,2.61-3.25c2-2.57,4-5.2,6-7.84.75-1,1.49-2.06,2.23-3.09,1.55-2.21,3.09-4.44,4.56-6.71.58-.86,1.13-1.74,1.69-2.61.74-1.14,1.46-2.27,2.15-3.43s1.38-2.21,2-3.35c.87-1.45,1.73-2.92,2.56-4.4.64-1.13,1.28-2.27,1.9-3.4.46-.8.87-1.6,1.29-2.41.62-1.14,1.24-2.27,1.81-3.43q4.07-7.89,7.55-16.09c.14-.3.26-.6.4-.92,0-.08.06-.16.1-.24l.06-.14c1.1-2.59,2.13-5.2,3.13-7.85,1.87-4.86,3.56-9.82,5.12-14.84A64.25,64.25,0,0,1,995.32,730Z"/><path d="M732.17,779.9C713,795.74,667.94,829.24,688,861.83c0,0-20.41-4.58-23.44-21.34s.3-67.28-36.85-83.12-3.66-38.66-19.48-51.44-16.15-12.79-25.57-14S580,670,561.25,660s-16-12.62-20.29-22.07c-2.27-5-11.58-12.11-17.75-14.93a18,18,0,0,0-2-.82C538.63,516.26,607,452.32,677.1,426c0,.54-.06,1.12-.08,1.69-.5,8.81-.88,20.06-.66,32.15a40.56,40.56,0,0,1-13,9.25c-28.92,13.08-30.13,13.38-27.7,18.56s10.06,11.27,29.54-1.51A34.29,34.29,0,0,1,677.4,481a190.39,190.39,0,0,0,4.9,31.41c-1,1.23-2.19,2.49-3.41,3.8C647.22,550,634.13,544.85,629,579s-46.89,10.35-49.94,11-32.59,15.22-8.23,51.45,28.63,54.5,58.17,54.2,31.37-2.75,56.62,16.75,42.95,23.44,46.59,27.09S751.35,764.09,732.17,779.9Z"/><path d="M991,730.72c-21.27,64.86-52.26,51.93-52.26,51.93,14.1-14.48,17.59-37.39,18.28-51.57C971.81,732.46,982.89,731.94,991,730.72Z"/><path d="M1009.14,639.9l-2.21,2.45c-7.63,8.36-20.94,21.21-32.85,24-18,4.26-51.69-38.07-51.69-38.07L876.6,576.63c9.2-3.26,16.77,7.28,30.78,3.85,14.91-3.67,26.79-8.84,44.45-29.24s-15.23-17.35-19.5-14-14.92,7.9-18.86,4-12.19-3.05-14.94.3-18.26,19.18-28,11.87-7.31-13.09,15.83-26.17,15.54-28-2.13-33.51-21.93-15.53-17.35-22.22,10.66-16.76,7.31-22.23c-1.87-3.05-.12-7.17,1.89-10.46.46-.74.94-1.45,1.38-2.09C949.94,476.37,1008.88,564.15,1009.14,639.9Z"/><path d="M896.15,861.83A247,247,0,0,1,762.59,900.5c-34.56,0-33.38-2.32-49.21-5.49,7.65-8.34,25.85-21.66,38.81-30.61,17.59-12.09,17.67,9.17,26.28,15.32,9.12,6.51,74.89,1.3,90.88-21.47C879.21,844.19,888.84,851.77,896.15,861.83Z"/><path d="M922.18,167.6c-2.73,31.37,25,35.31,25,35.31s-22.23,6.1-11.58,25.9c3.57,6.63,9.15,12.64,13.77,15.11-13,1.63-31.51,6.77-61.51,17.5-12.47-29.87,11.93-90.42,36-135.89,8.59,12.89,24.24,18.58,28.92,20.06C947,144.15,924.57,140.31,922.18,167.6Z"/><path d="M1022.15,156.22c-9.1-30.69-27.09-54.76-53.71-64.25-7.65-2.72-17.48-4.52-23-4.42,7.11-11.82,13.08-24.77,15.75-28.84C1017.45,75.61,1018.92,127.45,1022.15,156.22Z"/><path d="M947.88,245.06l-.84-.45A34.33,34.33,0,0,1,933,230.22c-3.55-6.59-4.2-12.62-1.93-17.91a20.3,20.3,0,0,1,7.94-8.87c-8.81-3.86-21.73-13.43-19.76-36.1.81-9.2,3.89-16,9.16-20.3a22.49,22.49,0,0,1,10.09-4.55c-5.94-3.42-12.46-8.38-17.07-15.3-5.2-7.84-5.55-19.54-.86-28.47s13.54-14,24.84-14.16a57.72,57.72,0,0,1,20.81,4.11c1.12.42,2.22.86,3.31,1.31,32.29,13.54,53.62,45.8,54.33,82.18.76,38.57-11.78,69-29.15,70.87a192.91,192.91,0,0,1-24.06.95,150.34,150.34,0,0,0-21.77,1Zm-3.16-97.13c-4.09,0-8.88.73-12.6,3.75-4,3.21-6.31,8.65-7,16.18-2.44,28.08,21.42,31.95,22.44,32.1l14,2.08L948,205.79c-.08,0-8.73,2.51-11.45,8.9-1.5,3.52-.92,7.8,1.71,12.7a28.71,28.71,0,0,0,10.84,11.5,157.57,157.57,0,0,1,21.6-.89,188,188,0,0,0,23.37-.91h0c13.8-1.46,24.48-30.53,23.81-64.81-.67-34-20.56-64.16-50.67-76.78-1-.43-2-.84-3.1-1.23a51.83,51.83,0,0,0-18.61-3.74c-11.56.18-17.06,6.07-19.65,11-3.66,7-3.43,16.37.55,22.37,8,12,22.95,17.48,27.33,18.86L981,151.33l-28.47-2.77-1.43-.16A50.33,50.33,0,0,0,944.72,147.93Z"/><path d="M1424.05,515.91a3.06,3.06,0,0,1-4.18-.4q-3-3.53-6.11-6.71c-38.51-39.76-88.77-45.58-126-49.91-5.25-.62-10.2-1.19-14.89-1.82-36.56-5-40,16-46.64,57.91l-.06.4-.49,3.11c-6.71,42.31-16.06,59.94-17.07,61.72v0a.33.33,0,0,1-.06.12,3,3,0,0,1-2.61,1.46,3.29,3.29,0,0,1-1.42-.34,3,3,0,0,1-.74-.55,2.76,2.76,0,0,1-.43-3.32c.18-.31,9.72-17.55,16.47-60l.47-3.11c3.78-23.95,6.85-43.21,17-54.08,7.36-8,18.51-11.44,36.46-9,4.63.62,9.56,1.19,14.77,1.8,36.44,4.23,85,9.87,124.08,46.22a150.65,150.65,0,0,1,11.92,12.45A2.78,2.78,0,0,1,1424.05,515.91Z"/><path d="M1312.91,581.81a76.56,76.56,0,0,1-30.89-7c-23-10.26-26.19-30.71-24.91-45.75a21.52,21.52,0,0,1-10.06,6.57c-5,1.37-10.37.35-15.92-3-4.65-2.82-7.72-7.52-9.11-14-3.28-14.92,2.57-33,8-47.07a34.92,34.92,0,0,1,13.46-17c7.19-4.63,15.51-6.09,26.18-4.58,1.71.24,4.29.63,7.12,1.06,5,.76,10.55,1.61,13.83,2l2.09.26c35.82,4.32,80.4,9.71,119.66,47.85l.2.21a12.92,12.92,0,0,0,1.88,1.78,8.6,8.6,0,0,1,3.74,6.53c1.31,14.39-.8,33.78-8.5,44.65h0a23.06,23.06,0,0,1-13.71,9.36,39.5,39.5,0,0,1-17,.5c-11.61-2.23-19.81-9.49-24.71-15.33-1.22,10.52-6.18,19.26-14.44,25.16C1332.61,579.21,1323.24,581.81,1312.91,581.81Zm-39.36-92.23-7.81,25.93c-3.63,12.06-9.08,41.45,18.71,53.84,19.62,8.75,39.53,8.68,52-.18,9-6.43,13.18-16.6,12-29.42l-1.33-15.12,7,13.49c.09.16,9,17,26.08,20.23a34,34,0,0,0,14.43-.45,17,17,0,0,0,10.23-7c6.78-9.57,8.6-27.78,7.43-40.65-.12-1.24-.37-1.45-1.59-2.46a19.83,19.83,0,0,1-2.55-2.41c-37.78-36.65-79.39-41.68-116.1-46.11l-2.1-.25c-3.37-.42-9-1.28-14-2-2.81-.43-5.36-.82-7.06-1.06-9.15-1.29-16.19-.11-22.11,3.7a28.94,28.94,0,0,0-11.12,14.12c-4.75,12.26-10.73,30.12-7.77,43.64,1.06,4.85,3.14,8.17,6.38,10.13,4.15,2.52,7.83,3.3,11.25,2.37,6.84-1.87,11.42-10.41,13.88-15,.34-.63.64-1.2.92-1.68Z"/><path d="M983.84,338.31c-12-14-35.73-13.28-53.1,1.55-16.63,14.21-21.37,36.24-11.25,50.38,16,11.35,40.91,8.9,59.59-7.07a63.49,63.49,0,0,0,5.7-5.52,0,0,0,0,0,0,0C992.57,364.24,992.71,348.69,983.84,338.31ZM946.16,385.7c-2.83,2.43-6.72,2.53-8.67.26s-1.23-6.1,1.62-8.53,6.71-2.53,8.66-.26S949,383.27,946.16,385.7ZM960,346.88c-2.83,2.43-6.71,2.53-8.66.25s-1.24-6.09,1.59-8.52,6.71-2.53,8.66-.24S962.85,344.47,960,346.88Z"/><path d="M1099.51,488.6c-4.84-12.63-18.37-19.92-33.68-19.64q-2.94.8-5.86,1.91c-25.22,9.66-39.7,33.68-33.52,54.67,9.44,11.76,28.34,15.86,46.35,9C1094.13,526.34,1106.08,505.78,1099.51,488.6Zm-45.57,37.2c-3.49,1.34-7.18.14-8.25-2.65s.88-6.15,4.36-7.49,7.17-.15,8.25,2.65S1057.42,524.47,1053.94,525.8Zm16.31-40.29c-3.49,1.33-7.19.14-8.27-2.67s.88-6.16,4.36-7.49,7.18-.14,8.25,2.65S1073.71,484.17,1070.25,485.51Z"/><path class="cls-1" d="M1007.07,663.8q-.09,3-.3,6c-.3,5-.76,9.92-1.36,14.84l-4,3.81c1.37-5.78,2.89-11.68,4.2-17.59C1006.15,668.52,1006.65,666.15,1007.07,663.8Z"/><path d="M1041,673.92s-9.66,21.17-28.23,33.84a57.62,57.62,0,0,1-6.11,3.7,61,61,0,0,1-6.93,3.19c-1.46.56-3,1.08-4.52,1.53-11.1,3.33-24.54,3.93-40.64-.49a116.15,116.15,0,0,1-16.29-5.88c-2.11-.94-4.2-1.95-6.24-3-48-25.25-73.85-86.38-109.77-132.4-37.44-47.94,0-53.66,0-53.66s24.64-11.25,36.63,49.38a35.12,35.12,0,0,0,4.25,11.2c.43.75.91,1.49,1.41,2.21,13.88,19.78,58.56,80.07,101,100.27a26.13,26.13,0,0,0,27.58-3.37c4.53-3.65,9-6.51,12.49-9.52.4-.36.78-.7,1.14-1.06,3.36-3.16,14.37-12.94,14.25-17.72"/><path d="M770.56,654.62c-19,3-25.6-13.09-27.83-23.49a60.32,60.32,0,0,0-8.82-20.55c-1.78-2.67-3.71-5.5-5.68-8.17-2.79-3.77-12.15-24.12-21.33-51.11h0A463.82,463.82,0,0,1,692,497.74c-1.08-5.2-2-10.42-2.87-15.6a211.62,211.62,0,0,1-2.91-38.72,115.63,115.63,0,0,1,2.17-19.82c.1-.56.24-1.11.36-1.67.2-.92.42-1.81.66-2.71s.44-1.65.68-2.43a62.51,62.51,0,0,1,2.7-7.57c15.26-35.47,49.4-13.17,61.77-3.47a30.92,30.92,0,0,1,2.85,2.33l-24.4-.27s-2.93-1-5.48,6.49c-1.75,5.26-3.32,14.7-3.56,31.59C723.35,487,742.53,579,766.59,598.74S798.26,650.21,770.56,654.62Z"/><path d="M617.09,645.42s37.75,2.43,32.88,17.05l-.86,2.58a7.6,7.6,0,0,1-12.31,3.26,66.35,66.35,0,0,0-19.71-12.54C600,649.07,617.09,645.42,617.09,645.42Z"/><path d="M597.59,613.62a4.26,4.26,0,0,0-6,4.43c.77,5.58,3.22,12.7,10.67,13C613.15,631.42,611.91,620.05,597.59,613.62Z"/><path d="M843,499.54a6.06,6.06,0,0,1,5.11-1c5.79,1.33,21.44,5.77,17.33,14.18C860.86,522.13,835.15,505.84,843,499.54Z"/><path class="cls-4" d="M991.75,750.22v.14l-.58-.26Z"/></g></svg>