<svg xmlns="http://www.w3.org/2000/svg" viewBox="0 0 1920 1080"><defs><style>.cls-1{font-size:120.96px;font-family:FlowersKingdom, Flowers Kingdom;}.cls-2{font-family:MyriadPro-Regular, Myriad Pro;}.cls-3{fill:#001700;}.cls-4{fill:#fff;}</style></defs><g id="Calque_1" data-name="Calque 1"><text class="cls-1" transform="translate(130.9 747.21)"><tspan xml:space="preserve">où est bo         stman ?</tspan><tspan class="cls-2" x="1725.93" y="0"> </tspan></text></g><g id="Calque_2" data-name="Calque 2"><path d="M1206.13,591.6c-2.7-4.05-9.32-8.9-15.27-12.74a219.87,219.87,0,0,1-18.28-13.07c-29.32-23.46-58.23-9.36-58.23-9.36,1.35-16.87-11.47-31.89-11.47-31.89,17.21,1.77,26,18.06,26,18.06-4.14-29.7-42-39.4-42-39.4a74.16,74.16,0,0,0,33.06-5.06c-27,2.36-57.08-7.09-63.61-10s3.6-60.74-13.49-71.08c-12.92-7.83-30.62-7.39-38.5-6.71a1.75,1.75,0,0,0-.87,3.16,67.27,67.27,0,0,0,13.84,7c.5.22,1,.44,1.46.68,11,5.39,17.32,15.61,20.2,26.39,4.89,18.29,0,38.23-7.83,39.06-7.22.78-10.63-.09-16.95.71-4.8.6-11.27,2.17-22.35,6.14l-.06,0c-25.34,9.07-21.4-16.15-21.27-17-8.45,18.78,2.24,23.73,2.69,23.94-17.86-4.06-20.45-19-20.45-19-1.92,14.74,5.51,21.15,5.51,21.15-10.49-4.1-15.84-9-16.39-9.62.44.81,5.2,10,6.38,30.42.56,9.73,1.77,16,2.91,20,21.79,3,90.39,19,88.89,98.94,17.37,14.17,47.41,15.11,47.41,15.11-6.07-5.06-3.54-12.56-3.54-12.56,5.49,14.93,26.49,11.34,26.49,11.34-14-6.59-16.79-15.48-16.79-15.48,11.27,5.49,25.37-.22,28.43-3-2,.39-11.53.84-17.6-3.1-12.27-7.94-.5-15.82,3.55-19.71l.8-.76a8.55,8.55,0,0,0,1,.48h0c2.65,1.18,10.65,4,24.15,2.21,10.1-1.31,26-7.07,39.53-11.52l.17-.06a9.89,9.89,0,0,1-1.09-.17c-6.94-1.33-10.41-8-10.41-8,1.13,12.82-11.58,18.1-25.19,12-11.31-5-8.72-17.23-7.52-21.21-1.29,2.29-4.55,9.71-11.15,5.69a6.52,6.52,0,0,1-2.86-4.45c-1.16-5.26,1-11.92,2.92-16.76a11.8,11.8,0,0,1,4.54-5.74c2.12-1.36,4.84-2.11,8.91-1.53,1.73.24,5.83.9,7.77,1.14,13.54,1.64,29.82,3.37,44.33,17.46.89,1,1.7,1.09,1.82,2.46.44,4.83-.21,11.9-2.94,15.75a5.49,5.49,0,0,1-.52.65l1.44-.42c4.7-1.36,8.65-2.26,11.33-2.32C1202.28,599.68,1211.53,599.7,1206.13,591.6ZM984.87,546.77l-.27,0a1.11,1.11,0,0,1-.8-1.34l2.36-9.45a1.1,1.1,0,1,1,2.14.53l-2.36,9.45A1.11,1.11,0,0,1,984.87,546.77Zm5.19-3.84-.63,5a1.13,1.13,0,0,1-1.1,1h-.14a1.11,1.11,0,0,1-1-1.23l.64-5a1.09,1.09,0,0,1,1.22-.95A1.11,1.11,0,0,1,990.06,542.93Zm5.19,3.18-2.83,6.53a1.11,1.11,0,0,1-1,.67,1,1,0,0,1-.43-.1,1.09,1.09,0,0,1-.57-1.45l2.82-6.53a1.11,1.11,0,0,1,1.45-.58A1.12,1.12,0,0,1,995.25,546.11Zm31.42,26.34-8.14-.91a1.55,1.55,0,0,1-1.3-2l2.51-7.65a.8.8,0,0,1,1.4-.24l6.71,8.71A1.31,1.31,0,0,1,1026.67,572.45Zm0-35.19h0a22.58,22.58,0,0,1-2.1,2c-6.9,5.9-16.1,6.8-22,2.61a12.71,12.71,0,0,1-2.34-2.13c-5.55-6.5-3.64-17.24,4.26-24s18.82-7,24.37-.47C1033.85,521.19,1032.77,530.53,1026.67,537.26ZM1071,542.9c1.77-.68,4.5,2.13,6.09,6.27s1.43,8.07-.34,8.74-4.49-2.13-6.08-6.27S1069.2,543.57,1071,542.9Zm-30.73-32c1.35-1.34,5,.12,8.12,3.26s4.6,6.78,3.26,8.12-5-.12-8.12-3.25S1038.91,512.26,1040.25,510.91Zm-1.73,97.55a1.11,1.11,0,1,1,0-2.21h6.41a1.11,1.11,0,1,1,0,2.21Zm4.84,4a1.1,1.1,0,0,1-.1-2.2l5.11-.44a1.12,1.12,0,0,1,1.2,1,1.1,1.1,0,0,1-1,1.19l-5.11.44Zm13.44,2.57-9.53,2.55a.92.92,0,0,1-.29,0,1.1,1.1,0,0,1-.28-2.17l9.53-2.55a1.1,1.1,0,0,1,.57,2.13Zm8.7-14.47c-9.71,3.71-20.06.27-23.11-7.7-.13-.33-.24-.66-.34-1-2.28-7.76,3.07-16.63,12.39-20.2a22.59,22.59,0,0,1,2.16-.7c9-2.48,18.12,1,21,8.41C1080.61,587.38,1075.21,596.87,1065.5,600.59Z"/><path class="cls-3" d="M1030,675.18s0,.06,0,.09a3.49,3.49,0,0,1-.15.34c-.22-.11-.42-.19-.58-.26v-.49Z"/><path d="M1054.94,758.19a38.93,38.93,0,0,1-2.5,3c-16.48,6.27-42.11,4.93-73.39-33.62,35.27-11.43,49.06-42.25,52.5-51.57a99.85,99.85,0,0,1,9,4.77h0c5.94,3.6,11.46,8.17,8.91,11.65-4.24,5.79-8.35.36-11.07,2a3.44,3.44,0,0,0-1.22,1.47c-1.28,2.58,10,13.49,16.81,27.71l0,0C1059,734.06,1061.49,746.22,1054.94,758.19Z"/><path d="M1054.94,758.19c-.48.88-1,1.76-1.6,2.64-.29.13-.59.24-.9.36A38.93,38.93,0,0,0,1054.94,758.19Z"/><path d="M1076.92,753.9a67.62,67.62,0,0,1-7.38,7.59c.19-.2.54-.54.94-1A64.74,64.74,0,0,0,1076.92,753.9Z"/><path d="M1070.8,760.09c1.78-2.23,4.33-6.65,2.47-12.07A11.77,11.77,0,0,1,1070.8,760.09Z"/><path class="cls-3" d="M1054.94,758.19c-.48.88-1,1.76-1.6,2.64-.29.13-.59.24-.9.36A38.93,38.93,0,0,0,1054.94,758.19Z"/><path d="M1076.92,753.9a64.74,64.74,0,0,1-6.44,6.57c.09-.1.19-.21.28-.33l0,0a11.77,11.77,0,0,0,2.47-12.07c-.16-.45-.34-.9-.56-1.37A49.37,49.37,0,0,1,1059.2,758c7-11,9.4-28.85-10.73-55.47a1.8,1.8,0,0,1,.18-2.38c3.75-3.57,13.58-15.49-12.51-23.43l.16,0,.3,0c5.36.8,11.78.25,13.58-6.26,0-.16.09-.33.13-.5s.07-.37.11-.56a16.27,16.27,0,0,0,.24-2.84s5.07,7.93,4.48,14.77l.08.06.27.18c.12.08.26.17.43.3l.52.36h0C1064.38,688.06,1104.81,720,1076.92,753.9Z"/><path class="cls-3" d="M1055.22,681.45l.27.18Z"/><path class="cls-3" d="M1070.18,760.75c.14-.16.35-.35.58-.61-.09.12-.19.23-.28.33Z"/><path class="cls-3" d="M1076.92,753.9c27.89-33.93-12.54-65.84-20.47-71.61C1064.48,688,1105.83,719.78,1076.92,753.9Z"/><path d="M1034.29,650.68c-.18,1.42-.39,2.83-.63,4.24l-.16.16v.72c-.11.54-.21,1.09-.33,1.63-.28,1.45-.61,2.89-1,4.32a23,23,0,0,0,2.56-1.17c.2-.88.4-1.76.58-2.65.12-.64.25-1.28.37-1.93v0c.45-2.51.8-5.07,1-7.66Zm2.35-21c-.05-.5-.11-1-.17-1.5-.12-1-.25-1.89-.39-2.84-.09-.51-.17-1-.26-1.53-.06-.33-.11-.67-.18-1-.12-.66-.24-1.3-.38-1.95-.09-.45-.19-.91-.29-1.36l-.18-.81c-.09-.36-.17-.72-.26-1.07l-.24-1c-.24-.94-.5-1.87-.76-2.8l-.42-1.39c-.14-.46-.29-.92-.44-1.37-.29-.92-.61-1.83-.93-2.73-.16-.45-.33-.9-.5-1.35s-.46-1.19-.69-1.77q-.45-1.12-.93-2.22c-.13-.32-.27-.63-.42-.95-.24-.56-.5-1.11-.76-1.65s-.4-.86-.61-1.29c-.13-.27-.26-.53-.4-.8s-.28-.56-.43-.85l-.85-1.62-.61-1.1-.39-.69c-.23-.4-.46-.8-.7-1.2s-.48-.82-.73-1.22-.49-.81-.75-1.2c-.5-.8-1-1.6-1.55-2.37s-1-1.46-1.52-2.18c-1.41-2-2.9-3.87-4.46-5.71l-.79-.93c-.66-.75-1.33-1.5-2-2.24l-.89-1c-1-1-1.93-2-2.92-2.92-.29-.29-.59-.56-.89-.84s-.88-.82-1.33-1.22c-.7-.63-1.41-1.25-2.13-1.85l-1.09-.91-1.1-.88-1.11-.87-1-.76-1.47-1.09-.94-.66-1.17-.8-1.25-.83-1.13-.71c-.4-.26-.8-.51-1.21-.75-1.2-.74-2.43-1.45-3.68-2.14a91.57,91.57,0,0,0-36.51-11c-1.21-.09-2.42-.17-3.64-.22s-2.64-.09-4-.09-2.38,0-3.56.07a91.63,91.63,0,0,0-20.83,3.2c-.89.24-1.78.5-2.66.77l-.32.11c-.09.28-.17.59-.25.89s-.17.67-.25,1-.09.42-.13.62l.73-.23c.29-.1.57-.19.87-.27l2.26-.67a86.87,86.87,0,0,1,10.6-2.26,89.77,89.77,0,0,1,13.54-1c2,0,4,.07,5.91.19l1.53.11a88.8,88.8,0,0,1,33.89,9.76q.87.45,1.74.93A89.83,89.83,0,0,1,1034.84,635l.82-.9c.57-.65,1-1.17,1.25-1.48C1036.84,631.67,1036.75,630.67,1036.64,629.69Zm-6.09,37.72c-.64,2-1.36,4-2.15,5.89-.13.33-.26.65-.4,1a89.84,89.84,0,0,1-51.06,49.28l-.18.07a89.22,89.22,0,0,1-31.58,5.72,89.85,89.85,0,0,1-89.1-100.88c0-.19,0-.39.08-.59A89.75,89.75,0,0,1,913,555.74q0-.33,0-.63c0-.64.08-1.23.12-1.79a92,92,0,0,0,64.11,172.49l.3-.11a91.16,91.16,0,0,0,17.05-8.53c1-.63,1.95-1.27,2.91-1.94s1.9-1.33,2.82-2c.5-.38,1-.75,1.49-1.14a.63.63,0,0,0,.12-.11c.39-.29.77-.59,1.14-.89l1.34-1.12c1.37-1.15,2.72-2.35,4-3.59a1.66,1.66,0,0,0,.14-.13c.54-.51,1.07-1,1.59-1.55s1.13-1.14,1.68-1.73q1.92-2,3.7-4.12l.87-1,1-1.2c.75-1,1.49-1.92,2.2-2.9l.82-1.14c.58-.82,1.14-1.64,1.69-2.48.21-.32.42-.64.62-1s.54-.84.8-1.26.51-.82.75-1.24.64-1.08,1-1.62l.7-1.26c.17-.3.32-.59.48-.89s.45-.84.67-1.27c1-1.94,1.92-3.92,2.78-5.94a3.49,3.49,0,0,0,.15-.34s0-.06,0-.09a.11.11,0,0,1,0,0c.4-1,.79-1.92,1.15-2.9.7-1.8,1.32-3.63,1.9-5.48A24.07,24.07,0,0,1,1030.55,667.41Z"/><path d="M933.35,685.86c-7.08,5.85-23.73,18.22-16.3,30.26,0,0-7.54-1.69-8.66-7.88s.11-24.86-13.61-30.71-1.36-14.28-7.2-19-6-4.72-9.45-5.17-1-8.1-7.91-11.81-5.93-4.67-7.5-8.15c-.84-1.86-4.27-4.48-6.56-5.52a4.88,4.88,0,0,0-.75-.3c6.45-39.11,31.7-62.73,57.6-72.47q0,.3,0,.63c-.18,3.25-.32,7.41-.24,11.87a15,15,0,0,1-4.81,3.42c-10.68,4.83-11.13,4.94-10.23,6.85s3.71,4.17,10.91-.56a12.82,12.82,0,0,1,4.51-1.87,70.13,70.13,0,0,0,1.81,11.6c-.38.46-.81.92-1.26,1.41C902,600.94,897.14,599,895.23,611.62s-17.32,3.83-18.45,4.06-12,5.62-3,19,10.57,20.13,21.49,20,11.58-1,20.91,6.19,15.87,8.66,17.21,10S940.44,680,933.35,685.86Z"/><path d="M1029,667.69c-7.86,24-19.31,19.18-19.31,19.18,5.21-5.35,6.5-13.81,6.76-19A52.33,52.33,0,0,0,1029,667.69Z"/><path d="M1035.66,634.14l-.82.9c-2.81,3.09-7.73,7.84-12.13,8.88-6.64,1.58-19.09-14.06-19.09-14.06L986.7,610.77c3.4-1.21,6.2,2.69,11.37,1.42,5.51-1.35,9.9-3.27,16.42-10.8s-5.63-6.41-7.2-5.17-5.51,2.92-7,1.46a4.26,4.26,0,0,0-5.52.11c-1,1.24-6.74,7.09-10.34,4.39s-2.7-4.84,5.85-9.67,5.74-10.35-.79-12.38-8.1-5.73-6.41-8.21,3.94-6.18,2.7-8.21c-.69-1.12,0-2.65.7-3.86.17-.27.35-.54.51-.77C1013.79,573.73,1035.57,606.16,1035.66,634.14Z"/><path d="M993.92,716.12a91.15,91.15,0,0,1-49.33,14.28c-12.77,0-12.33-.85-18.18-2,2.83-3.09,9.55-8,14.34-11.31,6.5-4.47,6.52,3.38,9.7,5.66,3.37,2.4,27.67.48,33.58-7.93C987.67,709.6,991.22,712.4,993.92,716.12Z"/><path d="M1003.54,459.68c-1,11.59,9.22,13,9.22,13s-8.21,2.25-4.27,9.57a14.54,14.54,0,0,0,5.08,5.58c-4.79.6-11.63,2.5-22.72,6.47-4.6-11,4.41-33.4,13.31-50.2,3.18,4.76,9,6.86,10.69,7.41C1012.71,451,1004.42,449.6,1003.54,459.68Z"/><path d="M1040.47,455.48c-3.36-11.34-10-20.23-19.84-23.74a28.58,28.58,0,0,0-8.51-1.63c2.62-4.37,4.83-9.15,5.81-10.65C1038.73,425.7,1039.27,444.85,1040.47,455.48Z"/><path d="M1013,488.29l-.31-.17a12.58,12.58,0,0,1-5.2-5.31c-1.31-2.44-1.55-4.66-.72-6.62a7.49,7.49,0,0,1,2.94-3.27c-3.26-1.43-8-5-7.3-13.34.3-3.4,1.43-5.92,3.38-7.5a8.39,8.39,0,0,1,3.73-1.68,18.64,18.64,0,0,1-6.3-5.65,10.7,10.7,0,0,1-.32-10.51c1.74-3.31,5-5.17,9.17-5.24a21.41,21.41,0,0,1,7.69,1.52l1.22.49c11.93,5,19.81,16.91,20.07,30.35.28,14.25-4.35,25.5-10.77,26.18a71.25,71.25,0,0,1-8.89.35,54.75,54.75,0,0,0-8,.36Zm-1.16-35.88a7.28,7.28,0,0,0-4.66,1.39c-1.46,1.18-2.33,3.2-2.57,6-.9,10.38,7.91,11.81,8.28,11.86l5.19.77-5.05,1.39s-3.23.92-4.23,3.28c-.56,1.31-.34,2.88.63,4.7a10.6,10.6,0,0,0,4,4.24,59.39,59.39,0,0,1,8-.33,70.4,70.4,0,0,0,8.64-.33h0c5.1-.54,9-11.28,8.79-23.94A31.18,31.18,0,0,0,1020.16,433l-1.15-.45a19.08,19.08,0,0,0-6.87-1.38c-4.27.07-6.3,2.24-7.26,4.05a8.59,8.59,0,0,0,.2,8.27c3,4.45,8.48,6.46,10.1,7l10.08,3.17-10.52-1-.53-.06A17.31,17.31,0,0,0,1011.87,452.41Z"/><path d="M1188.92,588.34a1.12,1.12,0,0,1-1.54-.15c-.74-.87-1.49-1.69-2.26-2.48-14.22-14.68-32.79-16.83-46.54-18.43-1.94-.23-3.77-.44-5.5-.67-13.51-1.84-14.78,5.92-17.23,21.39l0,.14-.18,1.15c-2.48,15.63-5.93,22.14-6.31,22.8h0s0,0,0,0a1.1,1.1,0,0,1-1,.54,1.24,1.24,0,0,1-.53-.12,1.15,1.15,0,0,1-.27-.21,1,1,0,0,1-.16-1.22c.06-.12,3.59-6.49,6.08-22.15l.18-1.15c1.4-8.85,2.53-16,6.26-20,2.72-2.94,6.83-4.22,13.47-3.33,1.71.24,3.53.45,5.45.67,13.46,1.56,31.42,3.65,45.84,17.07a56.82,56.82,0,0,1,4.4,4.6A1,1,0,0,1,1188.92,588.34Z"/><path d="M1147.87,612.68a28.41,28.41,0,0,1-11.41-2.58c-8.51-3.8-9.67-11.35-9.2-16.91a8,8,0,0,1-3.72,2.43,7.38,7.38,0,0,1-5.88-1.11,7.57,7.57,0,0,1-3.36-5.16c-1.21-5.52,1-12.19,3-17.39a12.94,12.94,0,0,1,5-6.28c2.66-1.71,5.73-2.25,9.67-1.69l2.64.39c1.82.28,3.89.6,5.1.75l.78.09c13.23,1.6,29.69,3.59,44.2,17.67l.07.08a4.75,4.75,0,0,0,.7.66,3.2,3.2,0,0,1,1.38,2.41c.48,5.32-.3,12.48-3.14,16.5h0a8.5,8.5,0,0,1-5.06,3.46,14.65,14.65,0,0,1-6.27.18,16,16,0,0,1-9.12-5.66,12.9,12.9,0,0,1-5.34,9.29A17,17,0,0,1,1147.87,612.68Zm-14.54-34.07-2.88,9.58c-1.35,4.46-3.36,15.31,6.91,19.89,7.25,3.23,14.6,3.21,19.19-.07,3.33-2.37,4.87-6.13,4.45-10.86l-.49-5.59,2.57,5c0,.06,3.32,6.27,9.63,7.48a12.58,12.58,0,0,0,5.34-.17,6.29,6.29,0,0,0,3.78-2.59c2.5-3.54,3.17-10.26,2.74-15,0-.46-.14-.53-.59-.91a8,8,0,0,1-.94-.89c-14-13.54-29.33-15.39-42.89-17l-.77-.09c-1.25-.15-3.34-.47-5.18-.75-1-.16-2-.31-2.6-.39-3.39-.48-6,0-8.17,1.36a10.66,10.66,0,0,0-4.11,5.22c-1.76,4.53-4,11.12-2.87,16.12a5.42,5.42,0,0,0,2.36,3.74,5.19,5.19,0,0,0,4.15.87c2.53-.69,4.22-3.84,5.13-5.53.12-.24.24-.45.34-.63Z"/><path d="M1026.32,522.74c-4.42-5.17-13.2-4.91-19.62.57-6.14,5.25-7.89,13.38-4.16,18.61,5.92,4.19,15.12,3.29,22-2.61a22.58,22.58,0,0,0,2.1-2h0C1029.54,532.32,1029.59,526.57,1026.32,522.74Zm-13.92,17.5a2.06,2.06,0,1,1,.59-3.15A2.29,2.29,0,0,1,1012.4,540.24Zm5.12-14.34a2.05,2.05,0,1,1,.59-3.14A2.29,2.29,0,0,1,1017.52,525.9Z"/><path d="M1069,578.25c-1.79-4.66-6.78-7.36-12.44-7.25a22.59,22.59,0,0,0-2.16.7c-9.32,3.57-14.67,12.44-12.39,20.2,3.49,4.34,10.47,5.86,17.13,3.31C1067.06,592.19,1071.47,584.6,1069,578.25ZM1052.21,592a2.05,2.05,0,1,1,1.61-2.76A2.29,2.29,0,0,1,1052.21,592Zm6-14.88a2.06,2.06,0,1,1,1.61-2.77A2.3,2.3,0,0,1,1058.23,577.11Z"/><path class="cls-4" d="M1034.9,643c0,.74-.06,1.48-.11,2.23-.12,1.83-.28,3.66-.5,5.48l-1.48,1.4c.51-2.13,1.07-4.31,1.56-6.49C1034.56,644.71,1034.74,643.84,1034.9,643Z"/><path d="M1047.44,646.71s-3.57,7.82-10.43,12.5a21.72,21.72,0,0,1-2.25,1.37,23,23,0,0,1-2.56,1.17c-.54.21-1.1.4-1.67.57a26.78,26.78,0,0,1-15-.18,42.59,42.59,0,0,1-6-2.18c-.78-.34-1.56-.72-2.31-1.11-17.73-9.33-27.28-31.91-40.54-48.91-13.84-17.71,0-19.82,0-19.82s9.1-4.16,13.53,18.24a12.91,12.91,0,0,0,1.56,4.13c.17.28.34.56.53.82,5.12,7.31,21.63,29.58,37.29,37a9.64,9.64,0,0,0,10.19-1.25c1.67-1.34,3.33-2.4,4.62-3.51l.42-.39c1.24-1.17,5.3-4.78,5.26-6.55"/><path d="M947.53,639.58c-7,1.11-9.45-4.84-10.28-8.68a22.34,22.34,0,0,0-3.26-7.59c-.65-1-1.37-2-2.09-3-1-1.39-4.49-8.91-7.88-18.88h0a172.2,172.2,0,0,1-5.5-19.78c-.39-1.92-.75-3.85-1.06-5.76a78.46,78.46,0,0,1-1.07-14.31,42.28,42.28,0,0,1,.8-7.32c0-.2.09-.41.13-.62s.16-.66.25-1,.16-.61.25-.89a22.69,22.69,0,0,1,1-2.8c5.63-13.1,18.24-4.86,22.81-1.28a9.51,9.51,0,0,1,1,.86l-9-.1s-1.08-.38-2,2.4c-.65,1.94-1.23,5.43-1.32,11.67-.23,15.18,6.86,49.15,15.75,56.46S957.77,638,947.53,639.58Z"/><path d="M890.84,636.18s13.95.9,12.15,6.3l-.32.95a2.82,2.82,0,0,1-4.55,1.21,24.34,24.34,0,0,0-7.28-4.64C884.54,637.53,890.84,636.18,890.84,636.18Z"/><path d="M883.64,624.43a1.58,1.58,0,0,0-2.22,1.64c.28,2.06,1.19,4.69,3.94,4.79C889.39,631,888.93,626.81,883.64,624.43Z"/><path d="M974.3,582.29a2.27,2.27,0,0,1,1.89-.37c2.14.49,7.92,2.13,6.4,5.24C980.89,590.64,971.39,584.62,974.3,582.29Z"/><path class="cls-3" d="M1029.24,674.89v.05l-.22-.09Z"/></g></svg>